<?xml version="1.0" encoding="iso-8859-1"?>
<!-- Uploaded to: SVG Repo, www.svgrepo.com, Generator: SVG Repo Mixer Tools -->
<svg version="1.1" id="Layer_1" xmlns="http://www.w3.org/2000/svg" xmlns:xlink="http://www.w3.org/1999/xlink" 
	 viewBox="0 0 512 512" xml:space="preserve">
<path style="fill:#65B4BB;" d="M416.06,47.574v417.065c0,21.131-17.128,38.259-38.259,38.259H136.288
	c-21.131,0-38.259-17.128-38.259-38.259V47.574c0-21.131,17.128-38.259,38.259-38.259H377.8
	C398.932,9.315,416.06,26.444,416.06,47.574z"/>
<path style="fill:#7DC7CB;" d="M416.06,47.574v417.065c0,21.131-17.128,38.259-38.259,38.259H232.659L342.242,9.315h35.558
	C398.932,9.315,416.06,26.444,416.06,47.574z"/>
<rect x="98.029" y="75.474" style="fill:#A0DBFD;" width="318.029" height="364.564"/>
<polygon style="fill:#C1E9FD;" points="416.06,75.47 416.06,440.034 246.621,440.034 327.558,75.47 "/>
<path d="M376.751,0H135.249c-26.177,0-47.472,21.296-47.472,47.472v417.055c0,26.176,21.297,47.472,47.472,47.472h241.502
	c26.176,0,47.472-21.296,47.472-47.472V149.18c0-5.086-4.122-9.209-9.209-9.209c-5.087,0-9.209,4.123-9.209,9.209v281.537H181.705
	c-5.087,0-9.209,4.123-9.209,9.209c0,5.086,4.122,9.209,9.209,9.209h224.101v15.393c0,16.021-13.033,29.055-29.055,29.055H135.249
	c-16.022,0-29.055-13.034-29.055-29.055v-15.393h40.518c5.087,0,9.209-4.123,9.209-9.209c0-5.086-4.122-9.209-9.209-9.209h-40.518
	V84.567h299.612v30.234c0,5.086,4.122,9.209,9.209,9.209c5.087,0,9.209-4.123,9.209-9.209V47.472
	C424.223,21.296,402.928,0,376.751,0z M106.194,66.15V47.472c0-16.021,13.033-29.055,29.055-29.055h241.502
	c16.022,0,29.055,13.035,29.055,29.055V66.15H106.194z"/>
<path d="M217.674,204.761h88.171c5.087,0,9.209-4.123,9.209-9.209c0-5.086-4.122-9.209-9.209-9.209h-40.636V161.01
	c0-5.086-4.122-9.209-9.209-9.209s-9.209,4.123-9.209,9.209v25.334h-29.119c-11.427,0-20.724,9.297-20.724,20.724v37.418
	c0,11.427,9.297,20.724,20.724,20.724h76.655c1.272,0,2.307,1.035,2.307,2.307v37.418c0,1.272-1.035,2.307-2.307,2.307h-88.171
	c-5.087,0-9.209,4.123-9.209,9.209c0,5.086,4.122,9.209,9.209,9.209h40.635v25.334c0,5.086,4.122,9.209,9.209,9.209
	s9.209-4.123,9.209-9.209v-25.334h29.119c11.427,0,20.724-9.297,20.724-20.724v-37.418c0-11.427-9.297-20.724-20.724-20.724h-76.655
	c-1.272,0-2.307-1.035-2.307-2.307v-37.418C215.367,205.795,216.402,204.761,217.674,204.761z"/>
<path d="M288.537,33.151h-65.074c-5.087,0-9.209,4.123-9.209,9.209s4.122,9.209,9.209,9.209h65.074c5.087,0,9.209-4.123,9.209-9.209
	S293.624,33.151,288.537,33.151z"/>
<path d="M263.969,480.077c5.087,0,9.209-4.123,9.209-9.209c0-5.086-4.122-9.209-9.209-9.209h-15.937
	c-5.087,0-9.209,4.123-9.209,9.209c0,5.086,4.122,9.209,9.209,9.209H263.969z"/>
</svg>